<svg width="800" height="793" viewBox="0 0 800 793" fill="none" xmlns="http://www.w3.org/2000/svg">
<path d="M773.791 251.727C763.73 224.945 750.902 199.257 735.862 174.949C731.052 167.176 718.225 163.929 713.165 173.205C707.836 182.976 701.91 191.082 699.374 194.543C699.35 194.576 699.327 194.608 699.303 194.64C695.142 200.351 694.698 207.968 698.168 214.123C727.834 266.757 745.772 326.041 746.327 386.317C746.422 394.149 746.27 403.837 745.69 411.621C745.214 419.671 744.272 428.817 742.93 436.772C739.523 458.85 732.891 480.719 725.705 501.845C724.002 506.289 721.604 513.189 719.701 517.509L716.475 525.256C715.266 527.768 712.373 534.277 711.174 536.704C709.937 539.093 706.73 545.488 705.445 547.952C701.515 555.07 697.07 563.007 692.731 569.821C672.338 601.986 646.662 630.973 617.419 655.354C588.089 679.697 554.887 699.662 519.543 713.974C512.006 716.963 503.318 720.074 495.676 722.587C493.163 723.386 485.846 725.499 483.542 726.222C480.735 727.012 474.245 728.563 471.285 729.401C344.651 760.005 202.619 710.092 122.444 607.486C66.5639 536.399 39.8231 441.911 52.9081 352.248C66.4785 261.957 120.779 180.269 192.313 124.436C299.072 40.6451 457.133 27.1592 577.595 89.5169C585.744 93.7351 598.214 92.3638 605.288 86.5204C611.242 81.6011 612.35 78.4854 617.764 72.7315C625.047 64.9907 622.287 55.5373 614.547 50.9354C610.382 48.4593 606.112 46.0119 602.867 44.3663C458.114 -29.852 269.614 -10.1435 146.539 97.4106C73.254 160.58 19.0679 248.254 4.31749 344.893C-20.1205 500.913 61.0825 665.052 199.821 740.364C270.947 780.085 354.015 798.785 435.323 790.705C444.22 789.944 455.773 788.231 464.547 786.67C477.213 784.453 490.47 781.427 502.822 777.849C552.983 763.67 600.298 739.289 641.656 707.628C677.752 679.821 709.727 646.237 735.136 608.4C745.137 593.669 754.311 577.615 762.267 561.704C765.379 555.223 769.68 545.954 772.392 539.245C774.629 534.173 777.55 526.075 779.549 520.84C780.529 517.786 783.241 509.782 784.145 506.823C785.344 502.217 786.972 497.192 788.066 492.596C791.892 476.922 794.88 460.221 796.716 444.205C805.214 379.246 797.097 312.898 773.791 251.727Z" fill="#545353"/>
<path d="M773.791 251.727C763.73 224.945 750.902 199.257 735.862 174.949C731.052 167.176 718.225 163.929 713.165 173.205C707.836 182.976 701.91 191.082 699.374 194.543C699.35 194.576 699.327 194.608 699.303 194.64C695.142 200.351 694.698 207.968 698.168 214.123C727.834 266.757 745.772 326.041 746.327 386.317C746.422 394.149 746.27 403.837 745.69 411.621C745.214 419.671 744.272 428.817 742.93 436.772C739.523 458.85 732.891 480.719 725.705 501.845C724.002 506.289 721.604 513.189 719.701 517.509L716.475 525.256C715.266 527.768 712.373 534.277 711.174 536.704C709.937 539.093 706.73 545.488 705.445 547.952C701.515 555.07 697.07 563.007 692.731 569.821C672.338 601.986 646.662 630.973 617.419 655.354C588.089 679.697 554.887 699.662 519.543 713.974C512.006 716.963 503.318 720.074 495.676 722.587C493.163 723.386 485.846 725.499 483.542 726.222C480.735 727.012 474.245 728.563 471.285 729.401C344.651 760.005 202.619 710.092 122.444 607.486C66.5639 536.399 39.8231 441.911 52.9081 352.248C66.4785 261.957 120.779 180.269 192.313 124.436C299.072 40.6451 457.133 27.1592 577.595 89.5169C585.744 93.7351 598.214 92.3638 605.288 86.5204C611.242 81.6011 612.35 78.4854 617.764 72.7315C625.047 64.9907 622.287 55.5373 614.547 50.9354C610.382 48.4593 606.112 46.0119 602.867 44.3663C458.114 -29.852 269.614 -10.1435 146.539 97.4106C73.254 160.58 19.0679 248.254 4.31749 344.893C-20.1205 500.913 61.0825 665.052 199.821 740.364C270.947 780.085 354.015 798.785 435.323 790.705C444.22 789.944 455.773 788.231 464.547 786.67C477.213 784.453 490.47 781.427 502.822 777.849C552.983 763.67 600.298 739.289 641.656 707.628C677.752 679.821 709.727 646.237 735.136 608.4C745.137 593.669 754.311 577.615 762.267 561.704C765.379 555.223 769.68 545.954 772.392 539.245C774.629 534.173 777.55 526.075 779.549 520.84C780.529 517.786 783.241 509.782 784.145 506.823C785.344 502.217 786.972 497.192 788.066 492.596C791.892 476.922 794.88 460.221 796.716 444.205C805.214 379.246 797.097 312.898 773.791 251.727Z" fill="#545353"/>
<path d="M735.126 53.2408C728.146 41.6269 713.072 37.871 701.458 44.8521C698.461 46.6538 695.703 48.6656 693.007 50.7329C680.655 59.9471 667.739 74.7807 657.319 85.9554C565.783 184.674 482.83 292.133 414.392 408.392C407.583 419.712 400.523 432.137 394.809 444.059C389.31 455.296 383.451 467.676 378.219 479.105C342.221 413.202 285.582 340.879 218.352 311.284C191.472 300.162 164.875 328.467 178.185 354.735C182.131 362.48 186.737 369.705 191.346 376.985C213.819 412.39 240.229 444.728 263.567 479.393C293.241 522.821 318.233 568.804 342.405 615.403C359.056 646.824 406.219 642.112 416.148 607.648C432.818 572.578 449.952 537.933 468.275 503.772C474.128 492.691 480.888 480.892 486.513 469.734C491.982 458.771 498.128 446.091 503.814 435.206C550.948 342.932 607.501 255.919 668.652 172.067C679.016 157.932 693.167 138.796 703.771 124.817C710.515 115.784 721.322 102.462 727.115 93.0731C730.722 87.4093 734.107 81.6305 736.727 75.3621C739.642 68.3903 739.307 60.2039 735.126 53.2408Z" fill="#545353"/>
</svg>
