<svg width="717" height="717" viewBox="0 0 717 717" fill="none" xmlns="http://www.w3.org/2000/svg">
<path fill-rule="evenodd" clip-rule="evenodd" d="M358.333 50C188.046 50 50 188.046 50 358.333C50 528.62 188.046 666.667 358.333 666.667C528.62 666.667 666.667 528.62 666.667 358.333C666.667 188.046 528.62 50 358.333 50ZM0 358.333C0 160.431 160.431 0 358.333 0C556.237 0 716.667 160.431 716.667 358.333C716.667 556.237 556.237 716.667 358.333 716.667C160.431 716.667 0 556.237 0 358.333ZM358.333 200C372.14 200 383.333 211.193 383.333 225V347.977L459.343 423.99C469.107 433.753 469.107 449.58 459.343 459.343C449.58 469.107 433.753 469.107 423.99 459.343L340.657 376.01C335.967 371.323 333.333 364.963 333.333 358.333V225C333.333 211.193 344.527 200 358.333 200Z" fill="#545353"/>
</svg>
