<svg width="400" height="400" viewBox="0 0 400 400" fill="none" xmlns="http://www.w3.org/2000/svg">
<path d="M58.3017 58.3015C47.2328 69.3704 47.2328 87.3162 58.3017 98.3852L159.916 199.999L58.3017 301.616C47.2328 312.684 47.2328 330.631 58.3017 341.699C69.3703 352.767 87.3164 352.767 98.3851 341.699L199.999 240.082L301.616 341.699C312.684 352.767 330.631 352.767 341.699 341.699C352.767 330.631 352.767 312.684 341.699 301.616L240.083 199.999L341.699 98.3855C352.767 87.3168 352.767 69.3707 341.699 58.302C330.628 47.2331 312.684 47.2331 301.616 58.302L199.999 159.916L98.3851 58.3015C87.3164 47.2328 69.3703 47.2328 58.3017 58.3015Z" fill="#545353"/>
</svg>
