<svg width="400" height="400" viewBox="0 0 400 400" fill="none" xmlns="http://www.w3.org/2000/svg">
<path d="M55.7305 316.601C48.0898 324.242 48.0898 336.628 55.7305 344.269C63.3711 351.91 75.7593 351.91 83.3999 344.269L55.7305 316.601ZM213.834 213.834C221.475 206.193 221.475 193.807 213.834 186.166C206.193 178.525 193.807 178.525 186.166 186.166L213.834 213.834ZM186.166 186.166C178.525 193.807 178.525 206.193 186.166 213.834C193.807 221.475 206.193 221.475 213.834 213.834L186.166 186.166ZM344.269 83.3999C351.91 75.7593 351.91 63.3711 344.269 55.7305C336.628 48.0898 324.242 48.0898 316.601 55.7305L344.269 83.3999ZM213.834 186.166C206.193 178.525 193.807 178.525 186.166 186.166C178.525 193.807 178.525 206.193 186.166 213.834L213.834 186.166ZM316.601 344.269C324.242 351.91 336.628 351.91 344.269 344.269C351.91 336.628 351.91 324.242 344.269 316.601L316.601 344.269ZM186.166 213.834C193.807 221.475 206.193 221.475 213.834 213.834C221.475 206.193 221.475 193.807 213.834 186.166L186.166 213.834ZM83.3999 55.7305C75.7593 48.0898 63.3711 48.0898 55.7305 55.7305C48.0898 63.3711 48.0898 75.7593 55.7305 83.3999L83.3999 55.7305ZM83.3999 344.269L213.834 213.834L186.166 186.166L55.7305 316.601L83.3999 344.269ZM213.834 213.834L344.269 83.3999L316.601 55.7305L186.166 186.166L213.834 213.834ZM186.166 213.834L316.601 344.269L344.269 316.601L213.834 186.166L186.166 213.834ZM213.834 186.166L83.3999 55.7305L55.7305 83.3999L186.166 213.834L213.834 186.166Z" fill="#545353"/>
</svg>
