<svg width="432" height="304" viewBox="0 0 432 304" fill="none" xmlns="http://www.w3.org/2000/svg">
<path d="M24 128C10.7453 128 0 138.746 0 152C0 165.254 10.7453 176 24 176V128ZM408 176C421.254 176 432 165.254 432 152C432 138.746 421.254 128 408 128V176ZM24 256C10.7453 256 0 266.746 0 280C0 293.254 10.7453 304 24 304V256ZM408 304C421.254 304 432 293.254 432 280C432 266.746 421.254 256 408 256V304ZM24 0C10.7453 0 0 10.7453 0 24C0 37.2547 10.7453 48 24 48V0ZM408 48C421.254 48 432 37.2547 432 24C432 10.7453 421.254 0 408 0V48ZM24 176H408V128H24V176ZM24 304H408V256H24V304ZM24 48H408V0H24V48Z" fill="#545353"/>
</svg>
