<svg width="561" height="561" viewBox="0 0 561 561" fill="none" xmlns="http://www.w3.org/2000/svg">
<path d="M0.025 139.85C0.025 163.3 8.625 189.075 19.55 216.425C30.475 243.775 44.55 269.55 55.5 289.075C85.2 340.65 123.475 391.425 167.225 433.6C210.975 475.775 262.55 510.95 320.35 532.05C353.95 545.325 387.55 560.175 425.05 560.175C443.8 560.175 470.375 553.15 494.575 542.975C518.025 532.825 539.1 517.2 546.925 498.45C550.05 491.425 553.95 482.05 556.3 471.1C558.65 460.95 560.2 450.775 560.2 443.75C560.2 439.85 560.2 435.925 559.425 435.15C557.075 430.45 551.6 426.55 545.35 422.65C531.275 415.625 528.95 413.275 507.85 400.775C485.975 388.275 463.325 374.2 443.775 364.05C434.4 358.575 428.15 356.225 425.8 356.225C413.3 356.225 397.675 373.425 384.4 392.175C370.325 410.925 354.7 428.125 343.775 428.125C338.3 428.125 332.825 425.775 326.575 421.875C320.325 417.975 314.075 414.85 310.175 412.5C241.425 373.425 195.325 327.35 156.275 259.375C151.575 251.55 140.65 235.15 140.65 226.55C140.65 216.4 154.725 204.675 168.775 192.175C182.05 180.45 196.125 166.4 196.125 149.2C196.125 146.85 194.55 139.825 191.425 129.675C184.4 109.35 175.025 85.925 167.2 63.275C163.3 52.325 160.175 44.525 159.375 40.625C157.8 38.275 157.025 35.15 156.25 31.25C155.475 27.35 153.9 24.225 153.125 21.1C150.775 14.075 146.875 8.6 142.975 5.475C139.075 3.9 129.7 1.57499 120.325 0.774992C110.95 0.774992 100 0 95.325 0C92.975 0 89.85 -8.47504e-06 86.725 0.774992H76.575C51.575 11.725 33.6 33.6 20.325 59.375C7.825 85.15 0 114.075 0 139.85H0.025Z" fill="white"/>
</svg>
