<svg width="680" height="800" viewBox="0 0 680 800" fill="none" xmlns="http://www.w3.org/2000/svg">
<path d="M53.6842 154.602V451.952C53.6842 613.823 181.872 745.045 340 745.045C498.128 745.045 626.316 613.823 626.316 451.952V154.735L338.271 57.8743L53.6842 154.602ZM338.181 0L680 114.943V451.952C680 644.174 527.777 800 340 800C152.223 800 0 644.174 0 451.952V114.943L338.181 0ZM514.948 259.418C503.87 249.334 486.904 250.352 477.053 261.692L304.419 460.428L192.885 337.035C182.816 325.896 165.834 325.222 154.953 335.528C144.072 345.835 143.413 363.219 153.481 374.358L285.112 519.985C295.881 531.898 314.337 531.711 324.873 519.582L517.17 298.21C527.021 286.87 526.026 269.502 514.948 259.418Z" fill="#545353"/>
</svg>
