<svg width="1733" height="1716" viewBox="0 0 1733 1716" fill="none" xmlns="http://www.w3.org/2000/svg">
<path d="M1675.38 545.028C1653.59 487.041 1625.82 431.421 1593.25 378.791C1582.84 361.961 1555.07 354.932 1544.11 375.015C1532.57 396.172 1519.74 413.722 1514.25 421.216C1514.2 421.286 1514.15 421.356 1514.1 421.426C1505.09 433.791 1504.13 450.282 1511.64 463.61C1575.87 577.57 1614.71 705.928 1615.91 836.435C1616.12 853.392 1615.79 874.368 1614.53 891.222C1613.5 908.653 1611.46 928.454 1608.56 945.679C1601.18 993.481 1586.82 1040.83 1571.26 1086.57C1567.58 1096.19 1562.38 1111.13 1558.26 1120.49L1551.28 1137.26C1548.66 1142.7 1542.4 1156.79 1539.8 1162.05C1537.12 1167.22 1530.18 1181.06 1527.4 1186.4C1518.89 1201.81 1509.26 1219 1499.87 1233.75C1455.71 1303.39 1400.12 1366.15 1336.81 1418.94C1273.3 1471.65 1201.42 1514.87 1124.89 1545.86C1108.57 1552.33 1089.76 1559.07 1073.21 1564.51C1067.77 1566.24 1051.93 1570.82 1046.94 1572.38C1040.86 1574.09 1026.81 1577.45 1020.4 1579.26C746.222 1645.53 438.702 1537.46 265.11 1315.3C144.121 1161.39 86.223 956.806 114.554 762.671C143.936 567.177 261.504 390.309 416.387 269.423C647.536 88.0029 989.763 58.8038 1250.58 193.818C1268.23 202.951 1295.22 199.982 1310.54 187.33C1323.43 176.679 1325.83 169.933 1337.55 157.475C1353.32 140.715 1347.35 120.247 1330.59 110.283C1321.57 104.922 1312.33 99.6229 1305.3 96.0599C991.887 -64.6341 583.756 -21.9621 317.28 210.909C158.606 347.681 41.285 537.509 9.34802 746.746C-43.564 1084.55 132.253 1439.94 432.644 1603C586.641 1689 766.496 1729.49 942.54 1712C961.805 1710.35 986.819 1706.64 1005.82 1703.26C1033.24 1698.46 1061.94 1691.91 1088.69 1684.16C1197.29 1653.46 1299.74 1600.67 1389.28 1532.12C1467.44 1471.92 1536.67 1399.2 1591.68 1317.28C1613.34 1285.38 1633.2 1250.62 1650.42 1216.17C1657.16 1202.14 1666.48 1182.07 1672.35 1167.55C1677.19 1156.57 1683.51 1139.03 1687.84 1127.7C1689.96 1121.08 1695.84 1103.76 1697.79 1097.35C1700.39 1087.38 1703.91 1076.5 1706.28 1066.54C1714.57 1032.61 1721.04 996.449 1725.01 961.772C1743.41 821.126 1725.84 677.472 1675.38 545.028Z" fill="#F54900"/>
<path d="M1591.66 115.275C1576.55 90.129 1543.91 81.997 1518.76 97.112C1512.27 101.013 1506.3 105.369 1500.47 109.845C1473.72 129.795 1445.76 161.912 1423.2 186.107C1225.01 399.847 1045.4 632.514 897.222 884.231C882.479 908.742 867.193 935.643 854.823 961.456C842.916 985.785 830.23 1012.59 818.903 1037.34C740.96 894.645 618.33 738.056 472.766 673.978C414.567 649.898 356.98 711.181 385.799 768.055C394.341 784.825 404.314 800.469 414.294 816.23C462.951 892.888 520.132 962.904 570.664 1037.96C634.911 1131.99 689.023 1231.55 741.359 1332.44C777.411 1400.47 879.526 1390.27 901.024 1315.65C937.118 1239.72 974.215 1164.71 1013.89 1090.74C1026.56 1066.75 1041.2 1041.21 1053.37 1017.05C1065.22 993.309 1078.52 965.856 1090.83 942.287C1192.89 742.501 1315.33 554.105 1447.73 372.551C1470.17 341.947 1500.81 300.516 1523.77 270.249C1538.37 250.69 1561.77 221.846 1574.32 201.518C1582.13 189.255 1589.45 176.743 1595.13 163.171C1601.44 148.076 1600.71 130.351 1591.66 115.275Z" fill="#F54900"/>
</svg>
