<svg width="1308" height="263" viewBox="0 0 1308 263" fill="none" xmlns="http://www.w3.org/2000/svg">
<path d="M44.2847 147.618L28.9668 168.854C50.7407 219.446 93.0078 245.703 142.319 242.501C85.9633 236.88 51.9696 191.165 44.2847 147.618Z" fill="#0B4F4A" stroke="#0B4F4A"/>
<rect x="136.559" y="47.1177" width="60.737" height="26.3785" rx="6" fill="#F54900"/>
<rect x="100.924" y="82.7485" width="60.3007" height="26.4955" rx="6" fill="#F54900"/>
<rect x="97.2773" y="155.84" width="60.3007" height="26.4955" rx="6" fill="#F54900"/>
<rect x="171.289" y="155.84" width="60.3007" height="26.4955" rx="6" fill="#F54900"/>
<rect x="241.629" y="155.84" width="25.5821" height="25.5819" rx="6" fill="#F54900"/>
<rect x="133.818" y="191.473" width="60.3007" height="26.4955" rx="6" fill="#F54900"/>
<rect x="206.918" y="191.473" width="39.2868" height="26.4955" rx="6" fill="#F54900"/>
<rect x="65.3047" y="119.297" width="60.3007" height="26.4955" rx="6" fill="#F54900"/>
<rect x="139.301" y="119.297" width="60.3007" height="26.4955" rx="6" fill="#F54900"/>
<rect x="213.311" y="119.297" width="60.3007" height="26.4955" rx="6" fill="#F54900"/>
<rect x="174.938" y="82.7485" width="60.3007" height="26.4955" rx="6" fill="#F54900"/>
<rect x="246.205" y="83.6616" width="21.0139" height="26.4955" rx="6" fill="#F54900"/>
<rect x="210.57" y="47.1177" width="40.2005" height="26.4955" rx="6" fill="#F54900"/>
<path d="M149.356 2.34912C221.509 2.34912 280 60.553 280 132.351C280 204.149 221.509 262.353 149.356 262.353C118.654 262.353 90.4262 251.812 68.125 234.171C86.2667 245.579 107.682 252.169 130.62 252.169C196.052 252.169 249.096 198.554 249.096 132.415C249.096 66.2754 196.052 12.6587 130.62 12.6587C107.348 12.6587 85.6444 19.442 67.3359 31.1577C89.7584 13.139 118.291 2.34912 149.356 2.34912Z" fill="#0B4F4A"/>
<path d="M32.2463 73.6666C28.8597 71.7127 28.2168 67.0935 30.9411 64.289L77.7529 16.099C79.6615 14.1342 82.6585 13.7114 85.0361 15.0716L95.1555 20.8607C97.5636 22.2383 98.7132 25.0873 97.9355 27.7505L79.1304 92.149C78.0403 95.8823 73.741 97.6078 70.3723 95.6642L32.2463 73.6666Z" fill="#F54900"/>
<path d="M38.0122 100.556C37.081 99.9617 36.8079 98.7251 37.402 97.794L53.2237 73.0002C54.6738 70.7278 57.6915 70.0611 59.964 71.5112C62.2364 72.9613 62.903 75.979 61.4529 78.2514L45.6313 103.045C45.0371 103.976 43.8006 104.25 42.8694 103.655L38.0122 100.556Z" fill="#0B4F4A"/>
<rect width="46.7002" height="22.3108" rx="6" transform="matrix(0.537934 -0.842986 0.842991 0.537928 7.58984 133.962)" fill="#F54900"/>
<path d="M416.1 231.871C405.5 231.871 397.167 229.004 391.1 223.271C385.1 217.537 382.1 209.437 382.1 198.971C382.1 191.704 383.5 185.404 386.3 180.071C389.167 174.671 393.167 170.471 398.3 167.471C403.5 164.471 409.533 162.971 416.4 162.971C419.267 162.971 422.033 163.237 424.7 163.771C427.367 164.304 429.933 165.037 432.4 165.971L429.7 178.871C427.5 177.871 425.3 177.104 423.1 176.571C420.9 176.037 418.7 175.771 416.5 175.771C410.367 175.771 405.533 177.771 402 181.771C398.533 185.771 396.8 191.037 396.8 197.571C396.8 204.304 398.667 209.537 402.4 213.271C406.133 217.004 411.3 218.871 417.9 218.871C419.9 218.871 421.967 218.704 424.1 218.371C426.3 217.971 428.433 217.437 430.5 216.771L432.7 229.071C427.833 230.937 422.3 231.871 416.1 231.871ZM493.303 231.871C486.703 231.871 480.903 230.437 475.903 227.571C470.97 224.704 467.103 220.704 464.303 215.571C461.57 210.371 460.203 204.371 460.203 197.571C460.203 190.637 461.57 184.604 464.303 179.471C467.103 174.337 470.97 170.337 475.903 167.471C480.903 164.604 486.703 163.171 493.303 163.171C499.903 163.171 505.67 164.604 510.603 167.471C515.603 170.271 519.47 174.237 522.203 179.371C524.936 184.437 526.303 190.371 526.303 197.171C526.303 204.104 524.936 210.171 522.203 215.371C519.47 220.571 515.603 224.637 510.603 227.571C505.67 230.437 499.903 231.871 493.303 231.871ZM493.303 219.171C498.836 219.171 503.236 217.204 506.503 213.271C509.77 209.337 511.403 204.104 511.403 197.571C511.403 193.237 510.636 189.437 509.103 186.171C507.636 182.904 505.536 180.371 502.803 178.571C500.07 176.771 496.903 175.904 493.303 175.971C489.703 175.904 486.536 176.771 483.803 178.571C481.136 180.371 479.036 182.904 477.503 186.171C475.97 189.437 475.203 193.237 475.203 197.571C475.203 201.904 475.936 205.704 477.403 208.971C478.936 212.171 481.07 214.671 483.803 216.471C486.536 218.271 489.703 219.171 493.303 219.171ZM557.324 230.571V163.971H574.324L601.924 210.671V163.971H615.224V230.571H598.424L570.624 183.571V230.571H557.324ZM663.399 230.571V176.571H645.199V163.971H695.999V176.571H677.999V230.571H663.399ZM725.635 230.571V163.971C727.168 163.904 728.902 163.871 730.835 163.871C732.768 163.871 734.768 163.871 736.835 163.871C738.902 163.871 740.935 163.871 742.935 163.871C744.935 163.871 746.668 163.904 748.135 163.971C756.002 164.237 761.735 166.171 765.335 169.771C768.935 173.304 770.735 177.837 770.735 183.371C770.735 188.237 769.468 192.404 766.935 195.871C764.468 199.271 761.002 201.537 756.535 202.671C758.068 203.871 759.568 205.504 761.035 207.571C762.502 209.571 764.468 212.537 766.935 216.471C768.202 218.404 769.235 220.104 770.035 221.571C770.902 223.037 771.735 224.471 772.535 225.871C773.335 227.204 774.235 228.771 775.235 230.571H758.435L747.135 209.571C745.868 207.237 744.735 205.837 743.735 205.371C742.735 204.837 741.335 204.571 739.535 204.571V230.571H725.635ZM739.535 193.471H745.735C749.202 193.471 751.902 192.604 753.835 190.871C755.768 189.137 756.735 186.804 756.735 183.871C756.735 178.404 753.335 175.671 746.535 175.671H739.535V193.471ZM795.692 230.571L820.092 163.971H837.492L862.192 230.571H847.192L841.792 215.371H815.592L810.492 230.571H795.692ZM819.792 202.971H837.492L828.492 177.471L819.792 202.971ZM919.498 231.871C908.898 231.871 900.565 229.004 894.498 223.271C888.498 217.537 885.498 209.437 885.498 198.971C885.498 191.704 886.898 185.404 889.698 180.071C892.565 174.671 896.565 170.471 901.698 167.471C906.898 164.471 912.932 162.971 919.798 162.971C922.665 162.971 925.432 163.237 928.098 163.771C930.765 164.304 933.332 165.037 935.798 165.971L933.098 178.871C930.898 177.871 928.698 177.104 926.498 176.571C924.298 176.037 922.098 175.771 919.898 175.771C913.765 175.771 908.932 177.771 905.398 181.771C901.932 185.771 900.198 191.037 900.198 197.571C900.198 204.304 902.065 209.537 905.798 213.271C909.532 217.004 914.698 218.871 921.298 218.871C923.298 218.871 925.365 218.704 927.498 218.371C929.698 217.971 931.832 217.437 933.898 216.771L936.098 229.071C931.232 230.937 925.698 231.871 919.498 231.871ZM981.973 230.571V176.571H963.773V163.971H1014.57V176.571H996.573V230.571H981.973ZM1072.17 231.871C1065.57 231.871 1059.77 230.437 1054.77 227.571C1049.84 224.704 1045.97 220.704 1043.17 215.571C1040.44 210.371 1039.07 204.371 1039.07 197.571C1039.07 190.637 1040.44 184.604 1043.17 179.471C1045.97 174.337 1049.84 170.337 1054.77 167.471C1059.77 164.604 1065.57 163.171 1072.17 163.171C1078.77 163.171 1084.54 164.604 1089.47 167.471C1094.47 170.271 1098.34 174.237 1101.07 179.371C1103.8 184.437 1105.17 190.371 1105.17 197.171C1105.17 204.104 1103.8 210.171 1101.07 215.371C1098.34 220.571 1094.47 224.637 1089.47 227.571C1084.54 230.437 1078.77 231.871 1072.17 231.871ZM1072.17 219.171C1077.7 219.171 1082.1 217.204 1085.37 213.271C1088.64 209.337 1090.27 204.104 1090.27 197.571C1090.27 193.237 1089.5 189.437 1087.97 186.171C1086.5 182.904 1084.4 180.371 1081.67 178.571C1078.94 176.771 1075.77 175.904 1072.17 175.971C1068.57 175.904 1065.4 176.771 1062.67 178.571C1060 180.371 1057.9 182.904 1056.37 186.171C1054.84 189.437 1054.07 193.237 1054.07 197.571C1054.07 201.904 1054.8 205.704 1056.27 208.971C1057.8 212.171 1059.94 214.671 1062.67 216.471C1065.4 218.271 1068.57 219.171 1072.17 219.171ZM1135.79 230.571V163.971C1137.32 163.904 1139.06 163.871 1140.99 163.871C1142.92 163.871 1144.92 163.871 1146.99 163.871C1149.06 163.871 1151.09 163.871 1153.09 163.871C1155.09 163.871 1156.82 163.904 1158.29 163.971C1166.16 164.237 1171.89 166.171 1175.49 169.771C1179.09 173.304 1180.89 177.837 1180.89 183.371C1180.89 188.237 1179.62 192.404 1177.09 195.871C1174.62 199.271 1171.16 201.537 1166.69 202.671C1168.22 203.871 1169.72 205.504 1171.19 207.571C1172.66 209.571 1174.62 212.537 1177.09 216.471C1178.36 218.404 1179.39 220.104 1180.19 221.571C1181.06 223.037 1181.89 224.471 1182.69 225.871C1183.49 227.204 1184.39 228.771 1185.39 230.571H1168.59L1157.29 209.571C1156.02 207.237 1154.89 205.837 1153.89 205.371C1152.89 204.837 1151.49 204.571 1149.69 204.571V230.571H1135.79ZM1149.69 193.471H1155.89C1159.36 193.471 1162.06 192.604 1163.99 190.871C1165.92 189.137 1166.89 186.804 1166.89 183.871C1166.89 178.404 1163.49 175.671 1156.69 175.671H1149.69V193.471ZM1229.75 231.871C1225.82 231.871 1222.08 231.437 1218.55 230.571C1215.08 229.704 1212.12 228.537 1209.65 227.071L1210.85 213.671C1213.85 215.537 1216.98 217.004 1220.25 218.071C1223.58 219.071 1226.65 219.571 1229.45 219.571C1232.65 219.571 1235.25 218.904 1237.25 217.571C1239.25 216.237 1240.25 214.471 1240.25 212.271C1240.25 210.671 1239.75 209.437 1238.75 208.571C1237.75 207.637 1236.45 206.837 1234.85 206.171C1233.25 205.504 1231.48 204.771 1229.55 203.971C1227.35 203.037 1225.08 202.071 1222.75 201.071C1220.48 200.071 1218.35 198.871 1216.35 197.471C1214.42 196.004 1212.82 194.137 1211.55 191.871C1210.35 189.604 1209.75 186.737 1209.75 183.271C1209.75 176.937 1211.92 171.937 1216.25 168.271C1220.58 164.537 1226.62 162.671 1234.35 162.671C1240.28 162.671 1246.28 163.871 1252.35 166.271L1250.15 179.471C1247.68 178.071 1245.02 176.971 1242.15 176.171C1239.35 175.371 1236.68 174.971 1234.15 174.971C1231.02 174.971 1228.58 175.604 1226.85 176.871C1225.12 178.071 1224.25 179.704 1224.25 181.771C1224.25 183.704 1224.95 185.204 1226.35 186.271C1227.82 187.271 1229.65 188.237 1231.85 189.171C1234.05 190.104 1236.45 191.071 1239.05 192.071C1241.72 193.004 1244.22 194.237 1246.55 195.771C1248.95 197.237 1250.92 199.237 1252.45 201.771C1253.98 204.237 1254.75 207.437 1254.75 211.371C1254.75 217.837 1252.55 222.871 1248.15 226.471C1243.82 230.071 1237.68 231.871 1229.75 231.871Z" fill="#0B4F4A"/>
<path d="M338.26 116.571V37.9828H386.286V52.8508H355.37V70.7868H380.976V85.5368H355.37V116.571H338.26ZM398.747 116.571V37.9828C400.556 37.9041 402.602 37.8648 404.883 37.8648C407.164 37.8648 409.524 37.8648 411.963 37.8648C414.402 37.8648 416.801 37.8648 419.161 37.8648C421.521 37.8648 423.566 37.9041 425.297 37.9828C434.58 38.2975 441.345 40.5788 445.593 44.8268C449.841 48.9961 451.965 54.3455 451.965 60.8748C451.965 66.6175 450.47 71.5341 447.481 75.6248C444.57 79.6368 440.48 82.3115 435.209 83.6488C437.018 85.0648 438.788 86.9921 440.519 89.4308C442.25 91.7908 444.57 95.2915 447.481 99.9328C448.976 102.214 450.195 104.22 451.139 105.951C452.162 107.681 453.145 109.373 454.089 111.025C455.033 112.598 456.095 114.447 457.275 116.571H437.451L424.117 91.7908C422.622 89.0375 421.285 87.3855 420.105 86.8348C418.925 86.2055 417.273 85.8908 415.149 85.8908V116.571H398.747ZM415.149 72.7928H422.465C426.556 72.7928 429.742 71.7701 432.023 69.7248C434.304 67.6795 435.445 64.9261 435.445 61.4648C435.445 55.0141 431.433 51.7888 423.409 51.7888H415.149V72.7928ZM466.192 116.571V37.9828H483.302V116.571H466.192ZM537.438 118.105C524.93 118.105 515.097 114.722 507.938 107.957C500.858 101.191 497.318 91.6335 497.318 79.2828C497.318 70.7081 498.97 63.2741 502.274 56.9808C505.657 50.6088 510.377 45.6528 516.434 42.1128C522.57 38.5728 529.69 36.8028 537.792 36.8028C541.175 36.8028 544.44 37.1175 547.586 37.7468C550.733 38.3761 553.762 39.2415 556.672 40.3428L553.486 55.5648C550.89 54.3848 548.294 53.4801 545.698 52.8508C543.102 52.2215 540.506 51.9068 537.91 51.9068C530.673 51.9068 524.97 54.2668 520.8 58.9868C516.71 63.7068 514.664 69.9215 514.664 77.6308C514.664 85.5761 516.867 91.7515 521.272 96.1568C525.678 100.562 531.774 102.765 539.562 102.765C541.922 102.765 544.361 102.568 546.878 102.175C549.474 101.703 551.992 101.073 554.43 100.287L557.026 114.801C551.284 117.003 544.754 118.105 537.438 118.105ZM591.571 118.105C586.93 118.105 582.524 117.593 578.355 116.571C574.264 115.548 570.764 114.171 567.853 112.441L569.269 96.6288C572.809 98.8315 576.506 100.562 580.361 101.821C584.294 103.001 587.913 103.591 591.217 103.591C594.993 103.591 598.061 102.804 600.421 101.231C602.781 99.6575 603.961 97.5728 603.961 94.9768C603.961 93.0888 603.371 91.6335 602.191 90.6108C601.011 89.5095 599.477 88.5655 597.589 87.7788C595.701 86.9921 593.616 86.1268 591.335 85.1828C588.739 84.0815 586.064 82.9408 583.311 81.7608C580.636 80.5808 578.119 79.1648 575.759 77.5128C573.478 75.7821 571.59 73.5795 570.095 70.9048C568.679 68.2301 567.971 64.8475 567.971 60.7568C567.971 53.2835 570.528 47.3835 575.641 43.0568C580.754 38.6515 587.874 36.4488 596.999 36.4488C604 36.4488 611.08 37.8648 618.239 40.6968L615.643 56.2728C612.732 54.6208 609.586 53.3228 606.203 52.3788C602.899 51.4348 599.752 50.9628 596.763 50.9628C593.066 50.9628 590.194 51.7101 588.149 53.2048C586.104 54.6208 585.081 56.5481 585.081 58.9868C585.081 61.2681 585.907 63.0381 587.559 64.2968C589.29 65.4768 591.453 66.6175 594.049 67.7188C596.645 68.8201 599.477 69.9608 602.545 71.1408C605.692 72.2421 608.642 73.6975 611.395 75.5068C614.227 77.2375 616.548 79.5975 618.357 82.5868C620.166 85.4975 621.071 89.2735 621.071 93.9148C621.071 101.545 618.475 107.485 613.283 111.733C608.17 115.981 600.932 118.105 591.571 118.105ZM670.161 118.105C662.373 118.105 655.529 116.413 649.629 113.031C643.807 109.648 639.245 104.928 635.941 98.8708C632.715 92.7348 631.103 85.6548 631.103 77.6308C631.103 69.4495 632.715 62.3301 635.941 56.2728C639.245 50.2155 643.807 45.4955 649.629 42.1128C655.529 38.7301 662.373 37.0388 670.161 37.0388C677.949 37.0388 684.753 38.7301 690.575 42.1128C696.475 45.4168 701.037 50.0975 704.263 56.1548C707.488 62.1335 709.101 69.1348 709.101 77.1588C709.101 85.3401 707.488 92.4988 704.263 98.6348C701.037 104.771 696.475 109.569 690.575 113.031C684.753 116.413 677.949 118.105 670.161 118.105ZM670.161 103.119C676.69 103.119 681.882 100.798 685.737 96.1568C689.591 91.5155 691.519 85.3401 691.519 77.6308C691.519 72.5175 690.614 68.0335 688.805 64.1788C687.074 60.3241 684.596 57.3348 681.371 55.2108C678.145 53.0868 674.409 52.0641 670.161 52.1428C665.913 52.0641 662.176 53.0868 658.951 55.2108C655.804 57.3348 653.326 60.3241 651.517 64.1788C649.707 68.0335 648.803 72.5175 648.803 77.6308C648.803 82.7441 649.668 87.2281 651.399 91.0828C653.208 94.8588 655.725 97.8088 658.951 99.9328C662.176 102.057 665.913 103.119 670.161 103.119ZM782.427 118.105C769.919 118.105 760.085 114.722 752.927 107.957C745.847 101.191 742.307 91.6335 742.307 79.2828C742.307 70.7081 743.959 63.2741 747.263 56.9808C750.645 50.6088 755.365 45.6528 761.423 42.1128C767.559 38.5728 774.678 36.8028 782.781 36.8028C786.163 36.8028 789.428 37.1175 792.575 37.7468C795.721 38.3761 798.75 39.2415 801.661 40.3428L798.475 55.5648C795.879 54.3848 793.283 53.4801 790.687 52.8508C788.091 52.2215 785.495 51.9068 782.899 51.9068C775.661 51.9068 769.958 54.2668 765.789 58.9868C761.698 63.7068 759.653 69.9215 759.653 77.6308C759.653 85.5761 761.855 91.7515 766.261 96.1568C770.666 100.562 776.763 102.765 784.551 102.765C786.911 102.765 789.349 102.568 791.867 102.175C794.463 101.703 796.98 101.073 799.419 100.287L802.015 114.801C796.272 117.003 789.743 118.105 782.427 118.105ZM849.926 118.105C842.138 118.105 835.294 116.413 829.394 113.031C823.573 109.648 819.01 104.928 815.706 98.8708C812.481 92.7348 810.868 85.6548 810.868 77.6308C810.868 69.4495 812.481 62.3301 815.706 56.2728C819.01 50.2155 823.573 45.4955 829.394 42.1128C835.294 38.7301 842.138 37.0388 849.926 37.0388C857.714 37.0388 864.519 38.7301 870.34 42.1128C876.24 45.4168 880.803 50.0975 884.028 56.1548C887.254 62.1335 888.866 69.1348 888.866 77.1588C888.866 85.3401 887.254 92.4988 884.028 98.6348C880.803 104.771 876.24 109.569 870.34 113.031C864.519 116.413 857.714 118.105 849.926 118.105ZM849.926 103.119C856.456 103.119 861.648 100.798 865.502 96.1568C869.357 91.5155 871.284 85.3401 871.284 77.6308C871.284 72.5175 870.38 68.0335 868.57 64.1788C866.84 60.3241 864.362 57.3348 861.136 55.2108C857.911 53.0868 854.174 52.0641 849.926 52.1428C845.678 52.0641 841.942 53.0868 838.716 55.2108C835.57 57.3348 833.092 60.3241 831.282 64.1788C829.473 68.0335 828.568 72.5175 828.568 77.6308C828.568 82.7441 829.434 87.2281 831.164 91.0828C832.974 94.8588 835.491 97.8088 838.716 99.9328C841.942 102.057 845.678 103.119 849.926 103.119ZM901.871 116.571V37.9828H921.931L954.499 93.0888V37.9828H970.193V116.571H950.369L917.565 61.1108V116.571H901.871ZM1023.38 118.105C1010.87 118.105 1001.04 114.722 993.882 107.957C986.802 101.191 983.262 91.6335 983.262 79.2828C983.262 70.7081 984.914 63.2741 988.218 56.9808C991.6 50.6088 996.32 45.6528 1002.38 42.1128C1008.51 38.5728 1015.63 36.8028 1023.74 36.8028C1027.12 36.8028 1030.38 37.1175 1033.53 37.7468C1036.68 38.3761 1039.71 39.2415 1042.62 40.3428L1039.43 55.5648C1036.83 54.3848 1034.24 53.4801 1031.64 52.8508C1029.05 52.2215 1026.45 51.9068 1023.85 51.9068C1016.62 51.9068 1010.91 54.2668 1006.74 58.9868C1002.65 63.7068 1000.61 69.9215 1000.61 77.6308C1000.61 85.5761 1002.81 91.7515 1007.22 96.1568C1011.62 100.562 1017.72 102.765 1025.51 102.765C1027.87 102.765 1030.3 102.568 1032.82 102.175C1035.42 101.703 1037.94 101.073 1040.37 100.287L1042.97 114.801C1037.23 117.003 1030.7 118.105 1023.38 118.105ZM1056.27 116.571V37.9828C1058.08 37.9041 1060.13 37.8648 1062.41 37.8648C1064.69 37.8648 1067.05 37.8648 1069.49 37.8648C1071.93 37.8648 1074.33 37.8648 1076.69 37.8648C1079.05 37.8648 1081.09 37.9041 1082.82 37.9828C1092.11 38.2975 1098.87 40.5788 1103.12 44.8268C1107.37 48.9961 1109.49 54.3455 1109.49 60.8748C1109.49 66.6175 1108 71.5341 1105.01 75.6248C1102.1 79.6368 1098.01 82.3115 1092.74 83.6488C1094.55 85.0648 1096.32 86.9921 1098.05 89.4308C1099.78 91.7908 1102.1 95.2915 1105.01 99.9328C1106.5 102.214 1107.72 104.22 1108.67 105.951C1109.69 107.681 1110.67 109.373 1111.62 111.025C1112.56 112.598 1113.62 114.447 1114.8 116.571H1094.98L1081.64 91.7908C1080.15 89.0375 1078.81 87.3855 1077.63 86.8348C1076.45 86.2055 1074.8 85.8908 1072.68 85.8908V116.571H1056.27ZM1072.68 72.7928H1079.99C1084.08 72.7928 1087.27 71.7701 1089.55 69.7248C1091.83 67.6795 1092.97 64.9261 1092.97 61.4648C1092.97 55.0141 1088.96 51.7888 1080.94 51.7888H1072.68V72.7928ZM1122.78 116.571V37.9828H1170.57V52.8508H1139.65V68.5448H1165.26V82.9408H1139.65V101.703H1170.57V116.571H1122.78ZM1203.26 116.571V52.8508H1181.78V37.9828H1241.72V52.8508H1220.48V116.571H1203.26ZM1253.57 116.571V37.9828H1301.36V52.8508H1270.44V68.5448H1296.05V82.9408H1270.44V101.703H1301.36V116.571H1253.57Z" fill="#F54900"/>
</svg>
