<svg width="1238" height="238" viewBox="0 0 1238 238" fill="none" xmlns="http://www.w3.org/2000/svg">
<path d="M346.1 219.3C335.5 219.3 327.167 216.433 321.1 210.7C315.1 204.967 312.1 196.867 312.1 186.4C312.1 179.133 313.5 172.833 316.3 167.5C319.167 162.1 323.167 157.9 328.3 154.9C333.5 151.9 339.533 150.4 346.4 150.4C349.267 150.4 352.033 150.667 354.7 151.2C357.367 151.733 359.933 152.467 362.4 153.4L359.7 166.3C357.5 165.3 355.3 164.533 353.1 164C350.9 163.467 348.7 163.2 346.5 163.2C340.367 163.2 335.533 165.2 332 169.2C328.533 173.2 326.8 178.467 326.8 185C326.8 191.733 328.667 196.967 332.4 200.7C336.133 204.433 341.3 206.3 347.9 206.3C349.9 206.3 351.967 206.133 354.1 205.8C356.3 205.4 358.433 204.867 360.5 204.2L362.7 216.5C357.833 218.367 352.3 219.3 346.1 219.3ZM423.303 219.3C416.703 219.3 410.903 217.867 405.903 215C400.97 212.133 397.103 208.133 394.303 203C391.57 197.8 390.203 191.8 390.203 185C390.203 178.067 391.57 172.033 394.303 166.9C397.103 161.767 400.97 157.767 405.903 154.9C410.903 152.033 416.703 150.6 423.303 150.6C429.903 150.6 435.67 152.033 440.603 154.9C445.603 157.7 449.47 161.667 452.203 166.8C454.936 171.867 456.303 177.8 456.303 184.6C456.303 191.533 454.936 197.6 452.203 202.8C449.47 208 445.603 212.067 440.603 215C435.67 217.867 429.903 219.3 423.303 219.3ZM423.303 206.6C428.836 206.6 433.236 204.633 436.503 200.7C439.77 196.767 441.403 191.533 441.403 185C441.403 180.667 440.636 176.867 439.103 173.6C437.636 170.333 435.536 167.8 432.803 166C430.07 164.2 426.903 163.333 423.303 163.4C419.703 163.333 416.536 164.2 413.803 166C411.136 167.8 409.036 170.333 407.503 173.6C405.97 176.867 405.203 180.667 405.203 185C405.203 189.333 405.936 193.133 407.403 196.4C408.936 199.6 411.07 202.1 413.803 203.9C416.536 205.7 419.703 206.6 423.303 206.6ZM487.324 218V151.4H504.324L531.924 198.1V151.4H545.224V218H528.424L500.624 171V218H487.324ZM593.399 218V164H575.199V151.4H625.999V164H607.999V218H593.399ZM655.635 218V151.4C657.168 151.333 658.902 151.3 660.835 151.3C662.768 151.3 664.768 151.3 666.835 151.3C668.902 151.3 670.935 151.3 672.935 151.3C674.935 151.3 676.668 151.333 678.135 151.4C686.002 151.667 691.735 153.6 695.335 157.2C698.935 160.733 700.735 165.267 700.735 170.8C700.735 175.667 699.468 179.833 696.935 183.3C694.468 186.7 691.002 188.967 686.535 190.1C688.068 191.3 689.568 192.933 691.035 195C692.502 197 694.468 199.967 696.935 203.9C698.202 205.833 699.235 207.533 700.035 209C700.902 210.467 701.735 211.9 702.535 213.3C703.335 214.633 704.235 216.2 705.235 218H688.435L677.135 197C675.868 194.667 674.735 193.267 673.735 192.8C672.735 192.267 671.335 192 669.535 192V218H655.635ZM669.535 180.9H675.735C679.202 180.9 681.902 180.033 683.835 178.3C685.768 176.567 686.735 174.233 686.735 171.3C686.735 165.833 683.335 163.1 676.535 163.1H669.535V180.9ZM725.692 218L750.092 151.4H767.492L792.192 218H777.192L771.792 202.8H745.592L740.492 218H725.692ZM749.792 190.4H767.492L758.492 164.9L749.792 190.4ZM849.498 219.3C838.898 219.3 830.565 216.433 824.498 210.7C818.498 204.967 815.498 196.867 815.498 186.4C815.498 179.133 816.898 172.833 819.698 167.5C822.565 162.1 826.565 157.9 831.698 154.9C836.898 151.9 842.932 150.4 849.798 150.4C852.665 150.4 855.432 150.667 858.098 151.2C860.765 151.733 863.332 152.467 865.798 153.4L863.098 166.3C860.898 165.3 858.698 164.533 856.498 164C854.298 163.467 852.098 163.2 849.898 163.2C843.765 163.2 838.932 165.2 835.398 169.2C831.932 173.2 830.198 178.467 830.198 185C830.198 191.733 832.065 196.967 835.798 200.7C839.532 204.433 844.698 206.3 851.298 206.3C853.298 206.3 855.365 206.133 857.498 205.8C859.698 205.4 861.832 204.867 863.898 204.2L866.098 216.5C861.232 218.367 855.698 219.3 849.498 219.3ZM911.973 218V164H893.773V151.4H944.573V164H926.573V218H911.973ZM1002.17 219.3C995.57 219.3 989.77 217.867 984.77 215C979.837 212.133 975.97 208.133 973.17 203C970.437 197.8 969.07 191.8 969.07 185C969.07 178.067 970.437 172.033 973.17 166.9C975.97 161.767 979.837 157.767 984.77 154.9C989.77 152.033 995.57 150.6 1002.17 150.6C1008.77 150.6 1014.54 152.033 1019.47 154.9C1024.47 157.7 1028.34 161.667 1031.07 166.8C1033.8 171.867 1035.17 177.8 1035.17 184.6C1035.17 191.533 1033.8 197.6 1031.07 202.8C1028.34 208 1024.47 212.067 1019.47 215C1014.54 217.867 1008.77 219.3 1002.17 219.3ZM1002.17 206.6C1007.7 206.6 1012.1 204.633 1015.37 200.7C1018.64 196.767 1020.27 191.533 1020.27 185C1020.27 180.667 1019.5 176.867 1017.97 173.6C1016.5 170.333 1014.4 167.8 1011.67 166C1008.94 164.2 1005.77 163.333 1002.17 163.4C998.57 163.333 995.404 164.2 992.67 166C990.004 167.8 987.904 170.333 986.37 173.6C984.837 176.867 984.07 180.667 984.07 185C984.07 189.333 984.804 193.133 986.27 196.4C987.804 199.6 989.937 202.1 992.67 203.9C995.404 205.7 998.57 206.6 1002.17 206.6ZM1065.79 218V151.4C1067.32 151.333 1069.06 151.3 1070.99 151.3C1072.92 151.3 1074.92 151.3 1076.99 151.3C1079.06 151.3 1081.09 151.3 1083.09 151.3C1085.09 151.3 1086.82 151.333 1088.29 151.4C1096.16 151.667 1101.89 153.6 1105.49 157.2C1109.09 160.733 1110.89 165.267 1110.89 170.8C1110.89 175.667 1109.62 179.833 1107.09 183.3C1104.62 186.7 1101.16 188.967 1096.69 190.1C1098.22 191.3 1099.72 192.933 1101.19 195C1102.66 197 1104.62 199.967 1107.09 203.9C1108.36 205.833 1109.39 207.533 1110.19 209C1111.06 210.467 1111.89 211.9 1112.69 213.3C1113.49 214.633 1114.39 216.2 1115.39 218H1098.59L1087.29 197C1086.02 194.667 1084.89 193.267 1083.89 192.8C1082.89 192.267 1081.49 192 1079.69 192V218H1065.79ZM1079.69 180.9H1085.89C1089.36 180.9 1092.06 180.033 1093.99 178.3C1095.92 176.567 1096.89 174.233 1096.89 171.3C1096.89 165.833 1093.49 163.1 1086.69 163.1H1079.69V180.9ZM1159.75 219.3C1155.82 219.3 1152.08 218.867 1148.55 218C1145.08 217.133 1142.12 215.967 1139.65 214.5L1140.85 201.1C1143.85 202.967 1146.98 204.433 1150.25 205.5C1153.58 206.5 1156.65 207 1159.45 207C1162.65 207 1165.25 206.333 1167.25 205C1169.25 203.667 1170.25 201.9 1170.25 199.7C1170.25 198.1 1169.75 196.867 1168.75 196C1167.75 195.067 1166.45 194.267 1164.85 193.6C1163.25 192.933 1161.48 192.2 1159.55 191.4C1157.35 190.467 1155.08 189.5 1152.75 188.5C1150.48 187.5 1148.35 186.3 1146.35 184.9C1144.42 183.433 1142.82 181.567 1141.55 179.3C1140.35 177.033 1139.75 174.167 1139.75 170.7C1139.75 164.367 1141.92 159.367 1146.25 155.7C1150.58 151.967 1156.62 150.1 1164.35 150.1C1170.28 150.1 1176.28 151.3 1182.35 153.7L1180.15 166.9C1177.68 165.5 1175.02 164.4 1172.15 163.6C1169.35 162.8 1166.68 162.4 1164.15 162.4C1161.02 162.4 1158.58 163.033 1156.85 164.3C1155.12 165.5 1154.25 167.133 1154.25 169.2C1154.25 171.133 1154.95 172.633 1156.35 173.7C1157.82 174.7 1159.65 175.667 1161.85 176.6C1164.05 177.533 1166.45 178.5 1169.05 179.5C1171.72 180.433 1174.22 181.667 1176.55 183.2C1178.95 184.667 1180.92 186.667 1182.45 189.2C1183.98 191.667 1184.75 194.867 1184.75 198.8C1184.75 205.267 1182.55 210.3 1178.15 213.9C1173.82 217.5 1167.68 219.3 1159.75 219.3Z" fill="#0B4F4A"/>
<path d="M268.26 104V25.412H316.286V40.28H285.37V58.216H310.976V72.966H285.37V104H268.26ZM328.747 104V25.412C330.556 25.3333 332.602 25.294 334.883 25.294C337.164 25.294 339.524 25.294 341.963 25.294C344.402 25.294 346.801 25.294 349.161 25.294C351.521 25.294 353.566 25.3333 355.297 25.412C364.58 25.7267 371.345 28.008 375.593 32.256C379.841 36.4253 381.965 41.7747 381.965 48.304C381.965 54.0467 380.47 58.9633 377.481 63.054C374.57 67.066 370.48 69.7407 365.209 71.078C367.018 72.494 368.788 74.4213 370.519 76.86C372.25 79.22 374.57 82.7207 377.481 87.362C378.976 89.6433 380.195 91.6493 381.139 93.38C382.162 95.1107 383.145 96.802 384.089 98.454C385.033 100.027 386.095 101.876 387.275 104H367.451L354.117 79.22C352.622 76.4667 351.285 74.8147 350.105 74.264C348.925 73.6347 347.273 73.32 345.149 73.32V104H328.747ZM345.149 60.222H352.465C356.556 60.222 359.742 59.1993 362.023 57.154C364.304 55.1087 365.445 52.3553 365.445 48.894C365.445 42.4433 361.433 39.218 353.409 39.218H345.149V60.222ZM396.192 104V25.412H413.302V104H396.192ZM467.438 105.534C454.93 105.534 445.097 102.151 437.938 95.386C430.858 88.6207 427.318 79.0627 427.318 66.712C427.318 58.1373 428.97 50.7033 432.274 44.41C435.657 38.038 440.377 33.082 446.434 29.542C452.57 26.002 459.69 24.232 467.792 24.232C471.175 24.232 474.44 24.5467 477.586 25.176C480.733 25.8053 483.762 26.6707 486.672 27.772L483.486 42.994C480.89 41.814 478.294 40.9093 475.698 40.28C473.102 39.6507 470.506 39.336 467.91 39.336C460.673 39.336 454.97 41.696 450.8 46.416C446.71 51.136 444.664 57.3507 444.664 65.06C444.664 73.0053 446.867 79.1807 451.272 83.586C455.678 87.9913 461.774 90.194 469.562 90.194C471.922 90.194 474.361 89.9973 476.878 89.604C479.474 89.132 481.992 88.5027 484.43 87.716L487.026 102.23C481.284 104.433 474.754 105.534 467.438 105.534ZM521.571 105.534C516.93 105.534 512.524 105.023 508.355 104C504.264 102.977 500.764 101.601 497.853 99.87L499.269 84.058C502.809 86.2607 506.506 87.9913 510.361 89.25C514.294 90.43 517.913 91.02 521.217 91.02C524.993 91.02 528.061 90.2333 530.421 88.66C532.781 87.0867 533.961 85.002 533.961 82.406C533.961 80.518 533.371 79.0627 532.191 78.04C531.011 76.9387 529.477 75.9947 527.589 75.208C525.701 74.4213 523.616 73.556 521.335 72.612C518.739 71.5107 516.064 70.37 513.311 69.19C510.636 68.01 508.119 66.594 505.759 64.942C503.478 63.2113 501.59 61.0087 500.095 58.334C498.679 55.6593 497.971 52.2767 497.971 48.186C497.971 40.7127 500.528 34.8127 505.641 30.486C510.754 26.0807 517.874 23.878 526.999 23.878C534 23.878 541.08 25.294 548.239 28.126L545.643 43.702C542.732 42.05 539.586 40.752 536.203 39.808C532.899 38.864 529.752 38.392 526.763 38.392C523.066 38.392 520.194 39.1393 518.149 40.634C516.104 42.05 515.081 43.9773 515.081 46.416C515.081 48.6973 515.907 50.4673 517.559 51.726C519.29 52.906 521.453 54.0467 524.049 55.148C526.645 56.2493 529.477 57.39 532.545 58.57C535.692 59.6713 538.642 61.1267 541.395 62.936C544.227 64.6667 546.548 67.0267 548.357 70.016C550.166 72.9267 551.071 76.7027 551.071 81.344C551.071 88.9747 548.475 94.914 543.283 99.162C538.17 103.41 530.932 105.534 521.571 105.534ZM600.161 105.534C592.373 105.534 585.529 103.843 579.629 100.46C573.807 97.0773 569.245 92.3573 565.941 86.3C562.715 80.164 561.103 73.084 561.103 65.06C561.103 56.8787 562.715 49.7593 565.941 43.702C569.245 37.6447 573.807 32.9247 579.629 29.542C585.529 26.1593 592.373 24.468 600.161 24.468C607.949 24.468 614.753 26.1593 620.575 29.542C626.475 32.846 631.037 37.5267 634.263 43.584C637.488 49.5627 639.101 56.564 639.101 64.588C639.101 72.7693 637.488 79.928 634.263 86.064C631.037 92.2 626.475 96.9987 620.575 100.46C614.753 103.843 607.949 105.534 600.161 105.534ZM600.161 90.548C606.69 90.548 611.882 88.2273 615.737 83.586C619.591 78.9447 621.519 72.7693 621.519 65.06C621.519 59.9467 620.614 55.4627 618.805 51.608C617.074 47.7533 614.596 44.764 611.371 42.64C608.145 40.516 604.409 39.4933 600.161 39.572C595.913 39.4933 592.176 40.516 588.951 42.64C585.804 44.764 583.326 47.7533 581.517 51.608C579.707 55.4627 578.803 59.9467 578.803 65.06C578.803 70.1733 579.668 74.6573 581.399 78.512C583.208 82.288 585.725 85.238 588.951 87.362C592.176 89.486 595.913 90.548 600.161 90.548ZM712.427 105.534C699.919 105.534 690.085 102.151 682.927 95.386C675.847 88.6207 672.307 79.0627 672.307 66.712C672.307 58.1373 673.959 50.7033 677.263 44.41C680.645 38.038 685.365 33.082 691.423 29.542C697.559 26.002 704.678 24.232 712.781 24.232C716.163 24.232 719.428 24.5467 722.575 25.176C725.721 25.8053 728.75 26.6707 731.661 27.772L728.475 42.994C725.879 41.814 723.283 40.9093 720.687 40.28C718.091 39.6507 715.495 39.336 712.899 39.336C705.661 39.336 699.958 41.696 695.789 46.416C691.698 51.136 689.653 57.3507 689.653 65.06C689.653 73.0053 691.855 79.1807 696.261 83.586C700.666 87.9913 706.763 90.194 714.551 90.194C716.911 90.194 719.349 89.9973 721.867 89.604C724.463 89.132 726.98 88.5027 729.419 87.716L732.015 102.23C726.272 104.433 719.743 105.534 712.427 105.534ZM779.926 105.534C772.138 105.534 765.294 103.843 759.394 100.46C753.573 97.0773 749.01 92.3573 745.706 86.3C742.481 80.164 740.868 73.084 740.868 65.06C740.868 56.8787 742.481 49.7593 745.706 43.702C749.01 37.6447 753.573 32.9247 759.394 29.542C765.294 26.1593 772.138 24.468 779.926 24.468C787.714 24.468 794.519 26.1593 800.34 29.542C806.24 32.846 810.803 37.5267 814.028 43.584C817.254 49.5627 818.866 56.564 818.866 64.588C818.866 72.7693 817.254 79.928 814.028 86.064C810.803 92.2 806.24 96.9987 800.34 100.46C794.519 103.843 787.714 105.534 779.926 105.534ZM779.926 90.548C786.456 90.548 791.648 88.2273 795.502 83.586C799.357 78.9447 801.284 72.7693 801.284 65.06C801.284 59.9467 800.38 55.4627 798.57 51.608C796.84 47.7533 794.362 44.764 791.136 42.64C787.911 40.516 784.174 39.4933 779.926 39.572C775.678 39.4933 771.942 40.516 768.716 42.64C765.57 44.764 763.092 47.7533 761.282 51.608C759.473 55.4627 758.568 59.9467 758.568 65.06C758.568 70.1733 759.434 74.6573 761.164 78.512C762.974 82.288 765.491 85.238 768.716 87.362C771.942 89.486 775.678 90.548 779.926 90.548ZM831.871 104V25.412H851.931L884.499 80.518V25.412H900.193V104H880.369L847.565 48.54V104H831.871ZM953.382 105.534C940.874 105.534 931.04 102.151 923.882 95.386C916.802 88.6207 913.262 79.0627 913.262 66.712C913.262 58.1373 914.914 50.7033 918.218 44.41C921.6 38.038 926.32 33.082 932.378 29.542C938.514 26.002 945.633 24.232 953.736 24.232C957.118 24.232 960.383 24.5467 963.53 25.176C966.676 25.8053 969.705 26.6707 972.616 27.772L969.43 42.994C966.834 41.814 964.238 40.9093 961.642 40.28C959.046 39.6507 956.45 39.336 953.854 39.336C946.616 39.336 940.913 41.696 936.744 46.416C932.653 51.136 930.608 57.3507 930.608 65.06C930.608 73.0053 932.81 79.1807 937.216 83.586C941.621 87.9913 947.718 90.194 955.506 90.194C957.866 90.194 960.304 89.9973 962.822 89.604C965.418 89.132 967.935 88.5027 970.374 87.716L972.97 102.23C967.227 104.433 960.698 105.534 953.382 105.534ZM986.274 104V25.412C988.084 25.3333 990.129 25.294 992.41 25.294C994.692 25.294 997.052 25.294 999.49 25.294C1001.93 25.294 1004.33 25.294 1006.69 25.294C1009.05 25.294 1011.09 25.3333 1012.82 25.412C1022.11 25.7267 1028.87 28.008 1033.12 32.256C1037.37 36.4253 1039.49 41.7747 1039.49 48.304C1039.49 54.0467 1038 58.9633 1035.01 63.054C1032.1 67.066 1028.01 69.7407 1022.74 71.078C1024.55 72.494 1026.32 74.4213 1028.05 76.86C1029.78 79.22 1032.1 82.7207 1035.01 87.362C1036.5 89.6433 1037.72 91.6493 1038.67 93.38C1039.69 95.1107 1040.67 96.802 1041.62 98.454C1042.56 100.027 1043.62 101.876 1044.8 104H1024.98L1011.64 79.22C1010.15 76.4667 1008.81 74.8147 1007.63 74.264C1006.45 73.6347 1004.8 73.32 1002.68 73.32V104H986.274ZM1002.68 60.222H1009.99C1014.08 60.222 1017.27 59.1993 1019.55 57.154C1021.83 55.1087 1022.97 52.3553 1022.97 48.894C1022.97 42.4433 1018.96 39.218 1010.94 39.218H1002.68V60.222ZM1052.78 104V25.412H1100.57V40.28H1069.65V55.974H1095.26V70.37H1069.65V89.132H1100.57V104H1052.78ZM1133.26 104V40.28H1111.78V25.412H1171.72V40.28H1150.48V104H1133.26ZM1183.57 104V25.412H1231.36V40.28H1200.44V55.974H1226.05V70.37H1200.44V89.132H1231.36V104H1183.57Z" fill="#F54900"/>
<path d="M0 32.4326L2.35505 45.3516L11.2495 94.1422L28.3135 187.754L28.9138 191.044L37.2979 237.039L113.691 237.049L140.541 237.052V236.146V153.869V68.8471V0L0 32.4326Z" fill="url(#paint0_linear_221_461)"/>
<path d="M90.2839 211.413C70.4278 203.128 49.918 195.115 28.916 191.044L37.3001 237.039L113.693 237.049L140.543 237.052V236.146C124.85 226.222 107.483 218.589 90.2839 211.413Z" fill="url(#paint1_linear_221_461)"/>
<path d="M140.541 0L0 32.4326L2.35505 45.3516L11.2489 94.1428C52.1946 105.465 91.3429 123.701 127.741 145.794C132.045 148.406 136.328 151.086 140.54 153.869V68.847V0H140.541Z" fill="url(#paint2_linear_221_461)"/>
<path d="M0 32.4326L2.35505 45.3516C49.3855 41.8631 97.2558 50.1084 140.541 68.8471V0L0 32.4326Z" fill="url(#paint3_linear_221_461)"/>
<path d="M140.539 0V237.052L164.611 237.247L186.309 67.7056L140.539 0Z" fill="url(#paint4_linear_221_461)"/>
<path d="M140.543 33.9363V17.6387L3.08789 49.3589L5.93911 64.9988L140.543 33.9363Z" fill="url(#paint5_linear_221_461)"/>
<path d="M140.542 73.1479V56.8496L8.78906 80.6387L11.6397 96.2786L140.542 73.1479Z" fill="url(#paint6_linear_221_461)"/>
<path d="M140.541 113.421V97.123L14.4902 111.92L17.3415 127.56L140.541 113.421Z" fill="url(#paint7_linear_221_461)"/>
<path d="M140.544 150.313V134.015L20.1953 143.199L23.0465 158.839L140.544 150.313Z" fill="url(#paint8_linear_221_461)"/>
<path d="M140.541 187.026V170.728L25.8945 174.479L28.7452 190.119L140.541 187.026Z" fill="url(#paint9_linear_221_461)"/>
<path d="M140.54 223.426V207.128L31.5957 205.758L34.4469 221.398L140.54 223.426Z" fill="url(#paint10_linear_221_461)"/>
<path d="M140.539 33.9363L182.502 98.009L184.313 83.8712L140.539 17.6387V33.9363Z" fill="url(#paint11_linear_221_461)"/>
<path d="M178.562 128.183L180.373 114.045L140.539 56.8496V73.1479L178.562 128.183Z" fill="url(#paint12_linear_221_461)"/>
<path d="M174.94 156.459L176.751 142.322L140.539 97.123V113.421L174.94 156.459Z" fill="url(#paint13_linear_221_461)"/>
<path d="M171.319 184.735L173.13 170.597L140.539 134.015V150.313L171.319 184.735Z" fill="url(#paint14_linear_221_461)"/>
<path d="M167.697 213.011L169.507 198.873L140.539 170.728V187.026L167.697 213.011Z" fill="url(#paint15_linear_221_461)"/>
<path d="M164.935 234.577L165.886 227.148L140.539 207.26V223.427L164.935 234.577Z" fill="url(#paint16_linear_221_461)"/>
<path d="M168.224 208.712L170.377 192.211L239.999 213.01L164.613 237.247L168.224 208.712Z" fill="#414042"/>
<defs>
<linearGradient id="paint0_linear_221_461" x1="-95.0824" y1="118.526" x2="196.188" y2="118.526" gradientUnits="userSpaceOnUse">
<stop stop-color="#F58220"/>
<stop offset="1" stop-color="#FFF45F"/>
</linearGradient>
<linearGradient id="paint1_linear_221_461" x1="84.7294" y1="268.178" x2="84.7294" y2="172.827" gradientUnits="userSpaceOnUse">
<stop offset="0.2755" stop-color="#FFD400" stop-opacity="0"/>
<stop offset="0.6322" stop-color="#FFE653" stop-opacity="0.4923"/>
<stop offset="1" stop-color="#FFF9AE"/>
</linearGradient>
<linearGradient id="paint2_linear_221_461" x1="70.2705" y1="204.898" x2="70.2705" y2="-48.3918" gradientUnits="userSpaceOnUse">
<stop offset="0.1684" stop-color="#FFF9AE"/>
<stop offset="0.474" stop-color="#FFE653" stop-opacity="0.4923"/>
<stop offset="0.7704" stop-color="#FFD400" stop-opacity="0"/>
</linearGradient>
<linearGradient id="paint3_linear_221_461" x1="70.2705" y1="68.8472" x2="70.2705" y2="-0.000114901" gradientUnits="userSpaceOnUse">
<stop stop-color="#FFF9AE"/>
<stop offset="1" stop-color="#FFD400" stop-opacity="0"/>
</linearGradient>
<linearGradient id="paint4_linear_221_461" x1="140.539" y1="118.624" x2="186.308" y2="118.624" gradientUnits="userSpaceOnUse">
<stop stop-color="#F58220"/>
<stop offset="1" stop-color="#BA141A"/>
</linearGradient>
<linearGradient id="paint5_linear_221_461" x1="3.08795" y1="41.3188" x2="140.543" y2="41.3188" gradientUnits="userSpaceOnUse">
<stop/>
<stop offset="1" stop-color="#C27514"/>
</linearGradient>
<linearGradient id="paint6_linear_221_461" x1="8.78883" y1="76.5643" x2="140.542" y2="76.5643" gradientUnits="userSpaceOnUse">
<stop/>
<stop offset="1" stop-color="#C27514"/>
</linearGradient>
<linearGradient id="paint7_linear_221_461" x1="14.4903" y1="112.341" x2="140.541" y2="112.341" gradientUnits="userSpaceOnUse">
<stop/>
<stop offset="1" stop-color="#C27514"/>
</linearGradient>
<linearGradient id="paint8_linear_221_461" x1="20.1954" y1="146.427" x2="140.544" y2="146.427" gradientUnits="userSpaceOnUse">
<stop/>
<stop offset="1" stop-color="#C27514"/>
</linearGradient>
<linearGradient id="paint9_linear_221_461" x1="25.8943" y1="180.423" x2="140.541" y2="180.423" gradientUnits="userSpaceOnUse">
<stop/>
<stop offset="1" stop-color="#C27514"/>
</linearGradient>
<linearGradient id="paint10_linear_221_461" x1="31.5958" y1="214.592" x2="140.54" y2="214.592" gradientUnits="userSpaceOnUse">
<stop/>
<stop offset="1" stop-color="#C27514"/>
</linearGradient>
<linearGradient id="paint11_linear_221_461" x1="140.539" y1="57.8237" x2="184.313" y2="57.8237" gradientUnits="userSpaceOnUse">
<stop stop-color="#C27514"/>
<stop offset="1"/>
</linearGradient>
<linearGradient id="paint12_linear_221_461" x1="140.539" y1="92.5164" x2="180.373" y2="92.5164" gradientUnits="userSpaceOnUse">
<stop stop-color="#C27514"/>
<stop offset="1"/>
</linearGradient>
<linearGradient id="paint13_linear_221_461" x1="140.539" y1="126.791" x2="176.751" y2="126.791" gradientUnits="userSpaceOnUse">
<stop stop-color="#C27514"/>
<stop offset="1"/>
</linearGradient>
<linearGradient id="paint14_linear_221_461" x1="140.539" y1="159.375" x2="173.129" y2="159.375" gradientUnits="userSpaceOnUse">
<stop stop-color="#C27514"/>
<stop offset="1"/>
</linearGradient>
<linearGradient id="paint15_linear_221_461" x1="140.539" y1="191.869" x2="169.508" y2="191.869" gradientUnits="userSpaceOnUse">
<stop stop-color="#C27514"/>
<stop offset="1"/>
</linearGradient>
<linearGradient id="paint16_linear_221_461" x1="140.539" y1="220.918" x2="165.886" y2="220.918" gradientUnits="userSpaceOnUse">
<stop stop-color="#C27514"/>
<stop offset="1"/>
</linearGradient>
</defs>
</svg>
