<svg width="1000" height="1000" viewBox="0 0 1000 1000" fill="none" xmlns="http://www.w3.org/2000/svg">
<rect width="1000" height="1000" rx="160" fill="#F3F4F6"/>
<path d="M463.579 239.544C441.104 250.146 420.145 270.586 402.597 299.83C376.673 343.034 361.519 399.789 359.502 460.934H434.438C435.12 396.444 440.481 336.139 449.737 289.846C453.834 269.349 458.413 252.634 463.579 239.544ZM403.624 250.965C321.006 286.638 261.884 366.71 256.508 460.934H331.389C333.442 394.846 349.949 332.944 378.497 285.369C386.236 272.471 394.651 260.982 403.624 250.965ZM596.352 250.966C605.325 260.983 613.74 272.471 621.479 285.369C650.027 332.946 666.53 394.846 668.583 460.933H743.468C738.092 366.708 678.969 286.639 596.352 250.966ZM536.309 239.524C543.728 258.3 549.972 284.22 554.898 316.498H554.899L554.916 316.605L554.941 316.764V316.771C554.942 316.772 554.942 316.774 554.942 316.775L554.943 316.782L555.292 319.1C557.024 330.737 558.568 343.136 559.887 355.997C563.261 388.899 565.153 424.142 565.536 460.933H640.473C638.457 399.787 623.301 343.032 597.378 299.829C579.804 270.543 558.81 250.089 536.298 239.498C536.301 239.507 536.305 239.516 536.309 239.524ZM500.081 231.733C498.641 233.083 495.877 236.352 492.417 243.72C487.734 253.691 481.838 271.035 476.216 300.948C467.997 344.671 463.197 401.026 462.547 460.933H537.436C537.053 425.091 535.206 390.817 531.928 358.865C530.567 345.596 528.962 332.861 527.16 321.019V321.018L527.15 320.958C527.149 320.952 527.148 320.947 527.147 320.943C527.145 320.928 527.142 320.912 527.141 320.902C527.137 320.882 527.134 320.859 527.131 320.84L527.12 320.775L527.117 320.755C521.92 286.7 515.847 264.633 510.533 250.833C507.876 243.932 505.422 239.134 503.385 235.949C502.003 233.788 500.876 232.474 500.081 231.733ZM772 474.987C772 482.698 765.791 488.956 758.1 489.038L758.088 489.041H242.054C234.293 489.041 228 482.749 228 474.987C228 402.341 256.295 334.032 307.663 282.663C359.032 231.293 427.341 203 499.987 203C572.633 203 640.944 231.293 692.312 282.664L693.508 283.867C743.922 334.895 771.755 402.38 771.974 474.145C771.988 474.416 771.999 474.694 772 474.979V474.987Z" fill="#364153" stroke="#364153" stroke-width="4"/>
<path d="M499.987 539.948C507.748 539.948 514.041 546.24 514.041 554.002V717.677H560.654C568.414 717.677 574.708 723.969 574.707 731.729V783.56C574.707 791.32 568.415 797.613 560.653 797.613H435.3C427.539 797.613 421.246 791.32 421.246 783.56V731.729L421.251 731.367C421.443 723.774 427.661 717.677 435.3 717.677H485.935V554.002C485.935 546.24 492.226 539.948 499.987 539.948ZM449.354 769.506H546.602V745.783H449.354V769.506Z" fill="#364153" stroke="#364153" stroke-width="4"/>
<path d="M499.989 500.671C507.75 500.671 514.042 506.964 514.042 514.725V515.007C514.042 522.768 507.749 529.06 499.989 529.061C492.228 529.061 485.936 522.768 485.936 515.007V514.725C485.936 506.964 492.227 500.671 499.989 500.671Z" fill="#364153" stroke="#364153" stroke-width="4"/>
</svg>
