<svg width="717" height="718" viewBox="0 0 717 718" fill="none" xmlns="http://www.w3.org/2000/svg">
<path d="M124.333 510.997V622.664C124.323 636.337 128.317 649.71 135.822 661.137C143.326 672.564 154.014 681.547 166.563 686.97C179.112 692.394 192.974 694.024 206.439 691.657C219.904 689.294 232.383 683.04 242.334 673.667L329.332 591.667H358.332C542.332 591.667 691.666 465 691.666 308.334C691.666 151.667 542.332 25 358.332 25C174.333 25 25 152 25 308.334C25.749 347.294 35.1027 385.604 52.3907 420.524C69.6787 455.447 94.4733 486.114 125 510.33L124.333 510.997Z" stroke="#545353" stroke-width="50" stroke-linecap="round" stroke-linejoin="round"/>
<path d="M524.349 275.997H191.016" stroke="#545353" stroke-width="50" stroke-linecap="round" stroke-linejoin="round"/>
<path d="M391.016 375.997H191.016" stroke="#545353" stroke-width="50" stroke-linecap="round" stroke-linejoin="round"/>
</svg>
